<svg width="54" height="11" viewBox="0 0 54 11" fill="none" xmlns="http://www.w3.org/2000/svg">
<path d="M2.20388 3.778V10H0.343875V3.778H2.20388ZM2.39588 2.074C2.39588 2.222 2.36588 2.362 2.30588 2.494C2.24588 2.622 2.16388 2.736 2.05988 2.836C1.95588 2.932 1.83388 3.01 1.69388 3.07C1.55788 3.126 1.41188 3.154 1.25587 3.154C1.10388 3.154 0.961875 3.126 0.829875 3.07C0.697875 3.01 0.579875 2.932 0.475875 2.836C0.375875 2.736 0.295875 2.622 0.235875 2.494C0.179875 2.362 0.151875 2.222 0.151875 2.074C0.151875 1.922 0.179875 1.78 0.235875 1.648C0.295875 1.516 0.375875 1.4 0.475875 1.3C0.579875 1.2 0.697875 1.122 0.829875 1.066C0.961875 1.01 1.10388 0.982 1.25587 0.982C1.41188 0.982 1.55788 1.01 1.69388 1.066C1.83388 1.122 1.95588 1.2 2.05988 1.3C2.16388 1.4 2.24588 1.516 2.30588 1.648C2.36588 1.78 2.39588 1.922 2.39588 2.074ZM6.36909 3.682C6.84109 3.682 7.27109 3.756 7.65909 3.904C8.04709 4.052 8.37909 4.264 8.65509 4.54C8.93509 4.816 9.15109 5.152 9.30309 5.548C9.45909 5.94 9.53709 6.382 9.53709 6.874C9.53709 7.37 9.45909 7.818 9.30309 8.218C9.15109 8.614 8.93509 8.952 8.65509 9.232C8.37909 9.508 8.04709 9.722 7.65909 9.874C7.27109 10.022 6.84109 10.096 6.36909 10.096C5.89309 10.096 5.45909 10.022 5.06709 9.874C4.67909 9.722 4.34309 9.508 4.05909 9.232C3.77909 8.952 3.56109 8.614 3.40509 8.218C3.25309 7.818 3.17709 7.37 3.17709 6.874C3.17709 6.382 3.25309 5.94 3.40509 5.548C3.56109 5.152 3.77909 4.816 4.05909 4.54C4.34309 4.264 4.67909 4.052 5.06709 3.904C5.45909 3.756 5.89309 3.682 6.36909 3.682ZM6.36909 8.716C6.79709 8.716 7.11109 8.566 7.31109 8.266C7.51509 7.962 7.61709 7.502 7.61709 6.886C7.61709 6.27 7.51509 5.812 7.31109 5.512C7.11109 5.212 6.79709 5.062 6.36909 5.062C5.92909 5.062 5.60709 5.212 5.40309 5.512C5.19909 5.812 5.09709 6.27 5.09709 6.886C5.09709 7.502 5.19909 7.962 5.40309 8.266C5.60709 8.566 5.92909 8.716 6.36909 8.716ZM16.1248 3.778L13.7128 10H12.0208L9.60881 3.778H11.1568C11.2888 3.778 11.3988 3.81 11.4868 3.874C11.5788 3.934 11.6408 4.01 11.6728 4.102L12.5368 6.892C12.6128 7.12 12.6788 7.342 12.7348 7.558C12.7948 7.774 12.8468 7.99 12.8908 8.206C12.9788 7.774 13.1008 7.336 13.2568 6.892L14.1568 4.102C14.1888 4.01 14.2488 3.934 14.3368 3.874C14.4248 3.81 14.5288 3.778 14.6488 3.778H16.1248ZM20.3906 6.142C20.3906 5.994 20.3706 5.85 20.3306 5.71C20.2946 5.57 20.2326 5.446 20.1446 5.338C20.0606 5.226 19.9486 5.136 19.8086 5.068C19.6686 5 19.4986 4.966 19.2986 4.966C18.9466 4.966 18.6706 5.068 18.4706 5.272C18.2706 5.472 18.1386 5.762 18.0746 6.142H20.3906ZM18.0506 7.222C18.1106 7.742 18.2686 8.12 18.5246 8.356C18.7806 8.588 19.1106 8.704 19.5146 8.704C19.7306 8.704 19.9166 8.678 20.0726 8.626C20.2286 8.574 20.3666 8.516 20.4866 8.452C20.6106 8.388 20.7226 8.33 20.8226 8.278C20.9266 8.226 21.0346 8.2 21.1466 8.2C21.2946 8.2 21.4066 8.254 21.4826 8.362L22.0226 9.028C21.8306 9.248 21.6226 9.428 21.3986 9.568C21.1786 9.704 20.9506 9.812 20.7146 9.892C20.4826 9.968 20.2486 10.02 20.0126 10.048C19.7806 10.08 19.5586 10.096 19.3466 10.096C18.9106 10.096 18.5006 10.026 18.1166 9.886C17.7366 9.742 17.4026 9.53 17.1146 9.25C16.8306 8.97 16.6046 8.622 16.4366 8.206C16.2726 7.79 16.1906 7.306 16.1906 6.754C16.1906 6.338 16.2606 5.944 16.4006 5.572C16.5446 5.2 16.7486 4.874 17.0126 4.594C17.2806 4.314 17.6026 4.092 17.9786 3.928C18.3586 3.764 18.7866 3.682 19.2626 3.682C19.6746 3.682 20.0506 3.746 20.3906 3.874C20.7346 4.002 21.0286 4.188 21.2726 4.432C21.5206 4.676 21.7126 4.976 21.8486 5.332C21.9886 5.684 22.0586 6.084 22.0586 6.532C22.0586 6.672 22.0526 6.786 22.0406 6.874C22.0286 6.962 22.0066 7.032 21.9746 7.084C21.9426 7.136 21.8986 7.172 21.8426 7.192C21.7906 7.212 21.7226 7.222 21.6386 7.222H18.0506ZM24.7294 4.738C24.9214 4.402 25.1414 4.138 25.3894 3.946C25.6414 3.754 25.9294 3.658 26.2534 3.658C26.5334 3.658 26.7614 3.724 26.9374 3.856L26.8174 5.224C26.7974 5.312 26.7634 5.372 26.7154 5.404C26.6714 5.436 26.6094 5.452 26.5294 5.452C26.4974 5.452 26.4554 5.45 26.4034 5.446C26.3514 5.442 26.2974 5.438 26.2414 5.434C26.1854 5.426 26.1274 5.42 26.0674 5.416C26.0114 5.408 25.9594 5.404 25.9114 5.404C25.6394 5.404 25.4214 5.476 25.2574 5.62C25.0974 5.764 24.9614 5.964 24.8494 6.22V10H22.9894V3.778H24.0934C24.1854 3.778 24.2614 3.786 24.3214 3.802C24.3854 3.818 24.4374 3.844 24.4774 3.88C24.5214 3.912 24.5534 3.956 24.5734 4.012C24.5974 4.068 24.6174 4.136 24.6334 4.216L24.7294 4.738ZM31.5254 5.14C31.4774 5.216 31.4254 5.27 31.3694 5.302C31.3174 5.334 31.2494 5.35 31.1654 5.35C31.0774 5.35 30.9894 5.332 30.9014 5.296C30.8134 5.256 30.7174 5.214 30.6134 5.17C30.5134 5.126 30.3994 5.086 30.2714 5.05C30.1434 5.01 29.9974 4.99 29.8334 4.99C29.5974 4.99 29.4154 5.036 29.2874 5.128C29.1634 5.216 29.1014 5.34 29.1014 5.5C29.1014 5.616 29.1414 5.712 29.2214 5.788C29.3054 5.864 29.4154 5.932 29.5514 5.992C29.6874 6.048 29.8414 6.102 30.0134 6.154C30.1854 6.206 30.3614 6.264 30.5414 6.328C30.7214 6.392 30.8974 6.468 31.0694 6.556C31.2414 6.64 31.3954 6.746 31.5314 6.874C31.6674 6.998 31.7754 7.15 31.8554 7.33C31.9394 7.51 31.9814 7.726 31.9814 7.978C31.9814 8.286 31.9254 8.57 31.8134 8.83C31.7014 9.09 31.5334 9.314 31.3094 9.502C31.0894 9.69 30.8154 9.836 30.4874 9.94C30.1634 10.044 29.7894 10.096 29.3654 10.096C29.1534 10.096 28.9414 10.076 28.7294 10.036C28.5174 9.996 28.3114 9.942 28.1114 9.874C27.9154 9.806 27.7334 9.726 27.5654 9.634C27.3974 9.538 27.2534 9.436 27.1334 9.328L27.5654 8.644C27.6134 8.564 27.6734 8.502 27.7454 8.458C27.8214 8.41 27.9174 8.386 28.0334 8.386C28.1414 8.386 28.2374 8.41 28.3214 8.458C28.4094 8.506 28.5034 8.558 28.6034 8.614C28.7034 8.67 28.8194 8.722 28.9514 8.77C29.0874 8.818 29.2574 8.842 29.4614 8.842C29.6054 8.842 29.7274 8.828 29.8274 8.8C29.9274 8.768 30.0074 8.726 30.0674 8.674C30.1274 8.622 30.1714 8.564 30.1994 8.5C30.2274 8.436 30.2414 8.37 30.2414 8.302C30.2414 8.178 30.1994 8.076 30.1154 7.996C30.0314 7.916 29.9214 7.848 29.7854 7.792C29.6494 7.732 29.4934 7.678 29.3174 7.63C29.1454 7.578 28.9694 7.52 28.7894 7.456C28.6094 7.392 28.4314 7.316 28.2554 7.228C28.0834 7.136 27.9294 7.022 27.7934 6.886C27.6574 6.746 27.5474 6.576 27.4634 6.376C27.3794 6.176 27.3374 5.934 27.3374 5.65C27.3374 5.386 27.3874 5.136 27.4874 4.9C27.5914 4.66 27.7454 4.45 27.9494 4.27C28.1534 4.09 28.4094 3.948 28.7174 3.844C29.0254 3.736 29.3854 3.682 29.7974 3.682C30.0214 3.682 30.2374 3.702 30.4454 3.742C30.6574 3.782 30.8554 3.838 31.0394 3.91C31.2234 3.982 31.3914 4.068 31.5434 4.168C31.6954 4.264 31.8294 4.37 31.9454 4.486L31.5254 5.14ZM34.8172 3.778V10H32.9572V3.778H34.8172ZM35.0092 2.074C35.0092 2.222 34.9792 2.362 34.9192 2.494C34.8592 2.622 34.7772 2.736 34.6732 2.836C34.5692 2.932 34.4472 3.01 34.3072 3.07C34.1712 3.126 34.0252 3.154 33.8692 3.154C33.7172 3.154 33.5752 3.126 33.4432 3.07C33.3112 3.01 33.1932 2.932 33.0892 2.836C32.9892 2.736 32.9092 2.622 32.8492 2.494C32.7932 2.362 32.7652 2.222 32.7652 2.074C32.7652 1.922 32.7932 1.78 32.8492 1.648C32.9092 1.516 32.9892 1.4 33.0892 1.3C33.1932 1.2 33.3112 1.122 33.4432 1.066C33.5752 1.01 33.7172 0.982 33.8692 0.982C34.0252 0.982 34.1712 1.01 34.3072 1.066C34.4472 1.122 34.5692 1.2 34.6732 1.3C34.7772 1.4 34.8592 1.516 34.9192 1.648C34.9792 1.78 35.0092 1.922 35.0092 2.074ZM40.7404 4.522C40.7404 4.65 40.7184 4.774 40.6744 4.894C40.6304 5.014 40.5724 5.112 40.5004 5.188L37.9024 8.62H40.6804V10H35.7604V9.244C35.7604 9.168 35.7804 9.072 35.8204 8.956C35.8604 8.84 35.9204 8.732 36.0004 8.632L38.6224 5.158H35.9284V3.778H40.7404V4.522ZM45.4688 6.142C45.4688 5.994 45.4488 5.85 45.4088 5.71C45.3728 5.57 45.3108 5.446 45.2228 5.338C45.1388 5.226 45.0268 5.136 44.8868 5.068C44.7468 5 44.5768 4.966 44.3768 4.966C44.0248 4.966 43.7488 5.068 43.5488 5.272C43.3488 5.472 43.2168 5.762 43.1528 6.142H45.4688ZM43.1288 7.222C43.1888 7.742 43.3468 8.12 43.6028 8.356C43.8588 8.588 44.1888 8.704 44.5928 8.704C44.8088 8.704 44.9948 8.678 45.1508 8.626C45.3068 8.574 45.4448 8.516 45.5648 8.452C45.6888 8.388 45.8008 8.33 45.9008 8.278C46.0048 8.226 46.1128 8.2 46.2248 8.2C46.3728 8.2 46.4848 8.254 46.5608 8.362L47.1008 9.028C46.9088 9.248 46.7008 9.428 46.4768 9.568C46.2568 9.704 46.0288 9.812 45.7928 9.892C45.5608 9.968 45.3268 10.02 45.0908 10.048C44.8588 10.08 44.6368 10.096 44.4248 10.096C43.9888 10.096 43.5788 10.026 43.1948 9.886C42.8148 9.742 42.4808 9.53 42.1928 9.25C41.9088 8.97 41.6828 8.622 41.5148 8.206C41.3508 7.79 41.2688 7.306 41.2688 6.754C41.2688 6.338 41.3388 5.944 41.4788 5.572C41.6228 5.2 41.8268 4.874 42.0908 4.594C42.3588 4.314 42.6808 4.092 43.0568 3.928C43.4368 3.764 43.8648 3.682 44.3408 3.682C44.7528 3.682 45.1288 3.746 45.4688 3.874C45.8128 4.002 46.1068 4.188 46.3508 4.432C46.5988 4.676 46.7908 4.976 46.9268 5.332C47.0668 5.684 47.1367 6.084 47.1367 6.532C47.1367 6.672 47.1308 6.786 47.1188 6.874C47.1068 6.962 47.0848 7.032 47.0528 7.084C47.0208 7.136 46.9768 7.172 46.9208 7.192C46.8688 7.212 46.8008 7.222 46.7168 7.222H43.1288ZM51.8415 5.446C51.7015 5.29 51.5495 5.182 51.3855 5.122C51.2215 5.058 51.0495 5.026 50.8695 5.026C50.6975 5.026 50.5395 5.06 50.3955 5.128C50.2515 5.196 50.1255 5.306 50.0175 5.458C49.9135 5.606 49.8315 5.8 49.7715 6.04C49.7115 6.28 49.6815 6.57 49.6815 6.91C49.6815 7.238 49.7055 7.514 49.7535 7.738C49.8015 7.962 49.8675 8.144 49.9515 8.284C50.0395 8.42 50.1435 8.518 50.2635 8.578C50.3835 8.638 50.5175 8.668 50.6655 8.668C50.8015 8.668 50.9235 8.656 51.0315 8.632C51.1435 8.604 51.2455 8.566 51.3375 8.518C51.4295 8.47 51.5155 8.41 51.5955 8.338C51.6795 8.262 51.7615 8.176 51.8415 8.08V5.446ZM53.7015 1.018V10H52.5495C52.3175 10 52.1655 9.896 52.0935 9.688L51.9495 9.214C51.8255 9.346 51.6955 9.466 51.5595 9.574C51.4235 9.682 51.2755 9.776 51.1155 9.856C50.9595 9.932 50.7895 9.99 50.6055 10.03C50.4255 10.074 50.2295 10.096 50.0175 10.096C49.6935 10.096 49.3935 10.024 49.1175 9.88C48.8415 9.736 48.6035 9.528 48.4035 9.256C48.2035 8.984 48.0455 8.652 47.9295 8.26C47.8175 7.864 47.7615 7.414 47.7615 6.91C47.7615 6.446 47.8255 6.016 47.9535 5.62C48.0815 5.22 48.2615 4.876 48.4935 4.588C48.7295 4.296 49.0115 4.068 49.3395 3.904C49.6675 3.74 50.0295 3.658 50.4255 3.658C50.7495 3.658 51.0215 3.704 51.2415 3.796C51.4615 3.888 51.6615 4.012 51.8415 4.168V1.018H53.7015Z" fill="black"/>
</svg>
