<svg width="52" height="52" viewBox="0 0 52 52" fill="none" xmlns="http://www.w3.org/2000/svg">
<path d="M15.6046 52C14.1742 52 12.9501 51.4913 11.9324 50.4738C10.9128 49.4546 10.4031 48.23 10.4031 46.8C10.4031 45.37 10.9128 44.1454 11.9324 43.1262C12.9501 42.1087 14.1742 41.6 15.6046 41.6C17.0351 41.6 18.2592 42.1087 19.2769 43.1262C20.2964 44.1454 20.8062 45.37 20.8062 46.8C20.8062 48.23 20.2964 49.4546 19.2769 50.4738C18.2592 51.4913 17.0351 52 15.6046 52ZM41.6124 52C40.182 52 38.9579 51.4913 37.9401 50.4738C36.9206 49.4546 36.4108 48.23 36.4108 46.8C36.4108 45.37 36.9206 44.1454 37.9401 43.1262C38.9579 42.1087 40.182 41.6 41.6124 41.6C43.0428 41.6 44.2678 42.1087 45.2873 43.1262C46.305 44.1454 46.8139 45.37 46.8139 46.8C46.8139 48.23 46.305 49.4546 45.2873 50.4738C44.2678 51.4913 43.0428 52 41.6124 52ZM15.6046 39C13.6541 39 12.1803 38.1437 11.1833 36.4312C10.1864 34.7204 10.143 33.02 11.0533 31.33L14.5643 24.96L5.20155 5.2H2.53575C1.79887 5.2 1.19202 4.9504 0.715213 4.4512C0.238404 3.95373 0 3.33667 0 2.6C0 1.86333 0.249674 1.2454 0.749023 0.7462C1.24664 0.248733 1.86389 0 2.60077 0H6.82703C7.30384 0 7.75898 0.13 8.19244 0.39C8.6259 0.65 8.951 1.01833 9.16773 1.495L10.9233 5.2H49.2847C50.455 5.2 51.2569 5.63333 51.6904 6.5C52.1238 7.36667 52.1022 8.27667 51.6254 9.23L42.3926 25.87C41.9158 26.7367 41.2873 27.4083 40.5071 27.885C39.7268 28.3617 38.8382 28.6 37.8413 28.6H18.4655L15.6046 33.8H44.2782C45.0151 33.8 45.6219 34.0487 46.0987 34.5462C46.5755 35.0454 46.8139 35.6633 46.8139 36.4C46.8139 37.1367 46.5643 37.7537 46.0649 38.2512C45.5673 38.7504 44.95 39 44.2132 39H15.6046Z" fill="black"/>
</svg>
